HIERARCHY
ROOT Hips
{
  OFFSET -277.901 75.6307 1588.21
  CHANNELS 6 Xposition Yposition Zposition Zrotation Xrotation Yrotation
  JOINT Spine
  {
    OFFSET 0 8 0
    CHANNELS 6 Xposition Yposition Zposition Zrotation Xrotation Yrotation
    JOINT Spine1
    {
      OFFSET 0 8 0
      CHANNELS 6 Xposition Yposition Zposition Zrotation Xrotation Yrotation
      JOINT Spine2
      {
        OFFSET 0 8 0
        CHANNELS 6 Xposition Yposition Zposition Zrotation Xrotation Yrotation
        JOINT Spine3
        {
          OFFSET 0 8 0
          CHANNELS 6 Xposition Yposition Zposition Zrotation Xrotation Yrotation
          JOINT Neck
          {
            OFFSET 0 17 0
            CHANNELS 6 Xposition Yposition Zposition Zrotation Xrotation Yrotation
            JOINT Head
            {
              OFFSET 0 10.8 0
              CHANNELS 6 Xposition Yposition Zposition Zrotation Xrotation Yrotation
              End Site
              {
                OFFSET 0 20.25 0
              }
            }
          }
          JOINT LeftShoulder
          {
            OFFSET 5 17 0
            CHANNELS 6 Xposition Yposition Zposition Zrotation Xrotation Yrotation
            JOINT LeftShoulder2
            {
              OFFSET 6.45 0 0
              CHANNELS 6 Xposition Yposition Zposition Zrotation Xrotation Yrotation
              JOINT LeftArm
              {
                OFFSET 6.45 0 0
                CHANNELS 6 Xposition Yposition Zposition Zrotation Xrotation Yrotation
                JOINT LeftForeArm
                {
                  OFFSET 0 -32.4 -2
                  CHANNELS 6 Xposition Yposition Zposition Zrotation Xrotation Yrotation
                  JOINT LeftHand
                  {
                    OFFSET 0 -25.65 2
                    CHANNELS 6 Xposition Yposition Zposition Zrotation Xrotation Yrotation
                    JOINT LeftHandThumb1
                    {
                      OFFSET -0.5 -1.5 2.65
                      CHANNELS 6 Xposition Yposition Zposition Zrotation Xrotation Yrotation
                      JOINT LeftHandThumb2
                      {
                        OFFSET 0 -3.8 3.7
                        CHANNELS 6 Xposition Yposition Zposition Zrotation Xrotation Yrotation
                        JOINT LeftHandThumb3
                        {
                          OFFSET 0 -3 2.7
                          CHANNELS 6 Xposition Yposition Zposition Zrotation Xrotation Yrotation
                          End Site
                          {
                            OFFSET 0 -2.3 1.8
                          }
                        }
                      }
                    }
                    JOINT LeftHandIndex
                    {
                      OFFSET 0 -1.9 1.6
                      CHANNELS 6 Xposition Yposition Zposition Zrotation Xrotation Yrotation
                      JOINT LeftHandIndex1
                      {
                        OFFSET 0 -8.3 1.9
                        CHANNELS 6 Xposition Yposition Zposition Zrotation Xrotation Yrotation
                        JOINT LeftHandIndex2
                        {
                          OFFSET 0 -4.5 0
                          CHANNELS 6 Xposition Yposition Zposition Zrotation Xrotation Yrotation
                          JOINT LeftHandIndex3
                          {
                            OFFSET 0 -3.4 0
                            CHANNELS 6 Xposition Yposition Zposition Zrotation Xrotation Yrotation
                            End Site
                            {
                              OFFSET 0 -2.6 0
                            }
                          }
                        }
                      }
                    }
                    JOINT LeftHandMiddle
                    {
                      OFFSET -0.25 -2.2 0.4
                      CHANNELS 6 Xposition Yposition Zposition Zrotation Xrotation Yrotation
                      JOINT LeftHandMiddle1
                      {
                        OFFSET 0 -8.3 1
                        CHANNELS 6 Xposition Yposition Zposition Zrotation Xrotation Yrotation
                        JOINT LeftHandMiddle2
                        {
                          OFFSET 0 -4.65 0
                          CHANNELS 6 Xposition Yposition Zposition Zrotation Xrotation Yrotation
                          JOINT LeftHandMiddle3
                          {
                            OFFSET 0 -3.3 0
                            CHANNELS 6 Xposition Yposition Zposition Zrotation Xrotation Yrotation
                            End Site
                            {
                              OFFSET 0 -2.7 0
                            }
                          }
                        }
                      }
                    }
                    JOINT LeftHandRing
                    {
                      OFFSET -0.5 -2.15 -0.8
                      CHANNELS 6 Xposition Yposition Zposition Zrotation Xrotation Yrotation
                      JOINT LeftHandRing1
                      {
                        OFFSET 0 -7.75 -0.2
                        CHANNELS 6 Xposition Yposition Zposition Zrotation Xrotation Yrotation
                        JOINT LeftHandRing2
                        {
                          OFFSET 0 -3.8 0
                          CHANNELS 6 Xposition Yposition Zposition Zrotation Xrotation Yrotation
                          JOINT LeftHandRing3
                          {
                            OFFSET 0 -3.4 0
                            CHANNELS 6 Xposition Yposition Zposition Zrotation Xrotation Yrotation
                            End Site
                            {
                              OFFSET 0 -2.6 0
                            }
                          }
                        }
                      }
                    }
                    JOINT LeftHandPinky
                    {
                      OFFSET -0.75 -1.75 -1.85
                      CHANNELS 6 Xposition Yposition Zposition Zrotation Xrotation Yrotation
                      JOINT LeftHandPinky1
                      {
                        OFFSET 0 -7.15 -1
                        CHANNELS 6 Xposition Yposition Zposition Zrotation Xrotation Yrotation
                        JOINT LeftHandPinky2
                        {
                          OFFSET 0 -3 0
                          CHANNELS 6 Xposition Yposition Zposition Zrotation Xrotation Yrotation
                          JOINT LeftHandPinky3
                          {
                            OFFSET 0 -2.35 0
                            CHANNELS 6 Xposition Yposition Zposition Zrotation Xrotation Yrotation
                            End Site
                            {
                              OFFSET 0 -2.1 0
                            }
                          }
                        }
                      }
                    }
                  }
                }
              }
            }
          }
          JOINT RightShoulder
          {
            OFFSET -5 17 0
            CHANNELS 6 Xposition Yposition Zposition Zrotation Xrotation Yrotation
            JOINT RightShoulder2
            {
              OFFSET -6.45 0 0
              CHANNELS 6 Xposition Yposition Zposition Zrotation Xrotation Yrotation
              JOINT RightArm
              {
                OFFSET -6.45 0 0
                CHANNELS 6 Xposition Yposition Zposition Zrotation Xrotation Yrotation
                JOINT RightForeArm
                {
                  OFFSET 0 -32.4 -2
                  CHANNELS 6 Xposition Yposition Zposition Zrotation Xrotation Yrotation
                  JOINT RightHand
                  {
                    OFFSET 0 -25.65 2
                    CHANNELS 6 Xposition Yposition Zposition Zrotation Xrotation Yrotation
                    JOINT RightHandThumb1
                    {
                      OFFSET 0.5 -1.5 2.65
                      CHANNELS 6 Xposition Yposition Zposition Zrotation Xrotation Yrotation
                      JOINT RightHandThumb2
                      {
                        OFFSET 0 -3.8 3.7
                        CHANNELS 6 Xposition Yposition Zposition Zrotation Xrotation Yrotation
                        JOINT RightHandThumb3
                        {
                          OFFSET 0 -3 2.7
                          CHANNELS 6 Xposition Yposition Zposition Zrotation Xrotation Yrotation
                          End Site
                          {
                            OFFSET 0 -2.3 1.8
                          }
                        }
                      }
                    }
                    JOINT RightHandIndex
                    {
                      OFFSET 0 -1.9 1.6
                      CHANNELS 6 Xposition Yposition Zposition Zrotation Xrotation Yrotation
                      JOINT RightHandIndex1
                      {
                        OFFSET 0 -8.3 1.9
                        CHANNELS 6 Xposition Yposition Zposition Zrotation Xrotation Yrotation
                        JOINT RightHandIndex2
                        {
                          OFFSET 0 -4.5 0
                          CHANNELS 6 Xposition Yposition Zposition Zrotation Xrotation Yrotation
                          JOINT RightHandIndex3
                          {
                            OFFSET 0 -3.4 0
                            CHANNELS 6 Xposition Yposition Zposition Zrotation Xrotation Yrotation
                            End Site
                            {
                              OFFSET 0 -2.6 0
                            }
                          }
                        }
                      }
                    }
                    JOINT RightHandMiddle
                    {
                      OFFSET 0.25 -2.2 0.4
                      CHANNELS 6 Xposition Yposition Zposition Zrotation Xrotation Yrotation
                      JOINT RightHandMiddle1
                      {
                        OFFSET 0 -8.3 1
                        CHANNELS 6 Xposition Yposition Zposition Zrotation Xrotation Yrotation
                        JOINT RightHandMiddle2
                        {
                          OFFSET 0 -4.65 0
                          CHANNELS 6 Xposition Yposition Zposition Zrotation Xrotation Yrotation
                          JOINT RightHandMiddle3
                          {
                            OFFSET 0 -3.3 0
                            CHANNELS 6 Xposition Yposition Zposition Zrotation Xrotation Yrotation
                            End Site
                            {
                              OFFSET 0 -2.7 0
                            }
                          }
                        }
                      }
                    }
                    JOINT RightHandRing
                    {
                      OFFSET 0.5 -2.15 -0.8
                      CHANNELS 6 Xposition Yposition Zposition Zrotation Xrotation Yrotation
                      JOINT RightHandRing1
                      {
                        OFFSET 0 -7.75 -0.2
                        CHANNELS 6 Xposition Yposition Zposition Zrotation Xrotation Yrotation
                        JOINT RightHandRing2
                        {
                          OFFSET 0 -3.8 0
                          CHANNELS 6 Xposition Yposition Zposition Zrotation Xrotation Yrotation
                          JOINT RightHandRing3
                          {
                            OFFSET 0 -3.4 0
                            CHANNELS 6 Xposition Yposition Zposition Zrotation Xrotation Yrotation
                            End Site
                            {
                              OFFSET 0 -2.6 0
                            }
                          }
                        }
                      }
                    }
                    JOINT RightHandPinky
                    {
                      OFFSET 0.75 -1.75 -1.85
                      CHANNELS 6 Xposition Yposition Zposition Zrotation Xrotation Yrotation
                      JOINT RightHandPinky1
                      {
                        OFFSET 0 -7.15 -1
                        CHANNELS 6 Xposition Yposition Zposition Zrotation Xrotation Yrotation
                        JOINT RightHandPinky2
                        {
                          OFFSET 0 -3 0
                          CHANNELS 6 Xposition Yposition Zposition Zrotation Xrotation Yrotation
                          JOINT RightHandPinky3
                          {
                            OFFSET 0 -2.35 0
                            CHANNELS 6 Xposition Yposition Zposition Zrotation Xrotation Yrotation
                            End Site
                            {
                              OFFSET 0 -2.1 0
                            }
                          }
                        }
                      }
                    }
                  }
                }
              }
            }
          }
        }
      }
    }
  }
  JOINT LeftUpLeg
  {
    OFFSET 8 0 0
    CHANNELS 6 Xposition Yposition Zposition Zrotation Xrotation Yrotation
    JOINT LeftLeg
    {
      OFFSET 0 -45 -1
      CHANNELS 6 Xposition Yposition Zposition Zrotation Xrotation Yrotation
      JOINT LeftFoot
      {
        OFFSET 0 -41 -2
        CHANNELS 6 Xposition Yposition Zposition Zrotation Xrotation Yrotation
        JOINT LeftToeBase
        {
          OFFSET 0 -7.5 12.5
          CHANNELS 6 Xposition Yposition Zposition Zrotation Xrotation Yrotation
          JOINT LeftFootToe
          {
            OFFSET 0 0 4
            CHANNELS 6 Xposition Yposition Zposition Zrotation Xrotation Yrotation
            End Site
            {
              OFFSET 0 0 0
            }
          }
        }
      }
    }
  }
  JOINT RightUpLeg
  {
    OFFSET -8 0 0
    CHANNELS 6 Xposition Yposition Zposition Zrotation Xrotation Yrotation
    JOINT RightLeg
    {
      OFFSET 0 -45 -1
      CHANNELS 6 Xposition Yposition Zposition Zrotation Xrotation Yrotation
      JOINT RightFoot
      {
        OFFSET 0 -41 -2
        CHANNELS 6 Xposition Yposition Zposition Zrotation Xrotation Yrotation
        JOINT RightToeBase
        {
          OFFSET 0 -7.5 12.5
          CHANNELS 6 Xposition Yposition Zposition Zrotation Xrotation Yrotation
          JOINT RightFootToe
          {
            OFFSET 0 0 4
            CHANNELS 6 Xposition Yposition Zposition Zrotation Xrotation Yrotation
            End Site
            {
              OFFSET 0 0 0
            }
          }
        }
      }
    }
  }
}
MOTION
Frames:	3
Frame Time:	0.0111111
-277.901 75.6307 1588.21 2.14842 4.05901 -179.969 0 8 0 -0.461137 9.49032 -10.5052 1.13687e-13 8 -4.54747e-13 -0.979838 7.99706 2.69233 2.84217e-14 8 0 -0.4423 4.00972 1.32758 5.68434e-14 8 0 -0.440967 3.99878 1.3239 2.84217e-14 17 -2.27374e-13 1.01981 7.07963 -7.1969 1.13687e-13 10.8 4.54747e-13 3.87261 16.2956 -17.3965 5 17 -2.27374e-13 -7.4669 -0.668354 9.01228 6.45 5.68434e-14 2.27374e-13 -0.633161 -0.809448 2.1655 6.45 1.13687e-13 2.27374e-13 49.766 17.0539 28.7983 1.13687e-13 -32.4 -2 -106.522 -44.5338 -113.676 1.7053e-13 -25.65 2 33.0121 -26.7235 -27.5772 -0.5 -1.5 2.65 -58.0061 -53.5586 101.474 0 -3.8 3.7 -0.0482407 23.7857 0.00156863 0 -3 2.7 -0.0145304 37.8844 0.0134874 2.27374e-13 -1.9 1.6 -6.55189e-32 -3.97569e-15 -9.44227e-16 -2.27374e-13 -8.3 1.9 -59.0834 8.6544 6.21249 4.54747e-13 -4.5 0 -78.7539 -0.000640289 -0.00113812 -2.27374e-13 -3.4 5.68434e-14 -63.824 0.00402294 -0.00446775 -0.25 -2.2 0.4 -6.55189e-32 -3.97569e-15 -9.44227e-16 0 -8.3 1 -61.3554 10.2069 8.80355 -2.27374e-13 -4.65 1.13687e-13 -73.5014 0.00199375 -0.00501835 2.27374e-13 -3.3 1.13687e-13 -90.0002 3.89618e-14 -3.26007e-14 -0.5 -2.15 -0.8 -6.55189e-32 -3.97569e-15 -9.44227e-16 -2.27374e-13 -7.75 -0.2 -80.3902 -3.33383 10.4345 -4.54747e-13 -3.8 0 -24.2894 0.00429396 0.00220021 -2.27374e-13 -3.4 5.68434e-14 -90.0002 -0.000610352 -9.42239e-14 -0.75 -1.75 -1.85 -6.55189e-32 -3.97569e-15 -9.44227e-16 5.68434e-14 -7.15 -1 -58.4841 12.8234 11.6107 2.27374e-13 -3 0 -79.009 -0.00171631 -0.0001241 0 -2.35 0 -90.0002 5.24792e-14 -3.18055e-14 -5 17 -2.27374e-13 9.19694 0.751917 7.1234 -6.45 -1.7053e-13 -4.54747e-13 -2.52272 0.725827 -3.04328 -6.45 0 0 -49.1511 -4.97622 -0.948178 0 -32.4 -2 -0.492381 -49.787 7.48221 -1.13687e-13 -25.65 2 -27.9729 4.25959 33.3627 0.5 -1.5 2.65 31.3378 -21.4594 15.2167 -2.27374e-13 -3.8 3.7 0.51019 46.4034 -0.419115 0 -3 2.7 0.0304267 -0.222665 -0.0260047 -1.13687e-13 -1.9 1.6 -3.18055e-15 0 -9.54166e-15 0 -8.3 1.9 32.4828 20.155 -6.60611 0 -4.5 2.27374e-13 25.769 -0.00921193 0.216205 0 -3.4 0 19.4603 0.0406098 0.130175 0.25 -2.2 0.4 -3.18055e-15 0 -9.54166e-15 1.13687e-13 -8.3 1 39.9343 13.5615 -6.49294 2.27374e-13 -4.65 0 44.2567 -0.127529 -1.39732 1.13687e-13 -3.3 0 32.5074 -0.613783 -0.875169 0.5 -2.15 -0.8 -3.18055e-15 0 -9.54166e-15 0 -7.75 -0.2 56.1221 10.7658 -9.5467 0 -3.8 0 11.1295 0.0402512 0.0863789 -2.27374e-13 -3.4 0 9.46836 0.040345 0.0602446 0.75 -1.75 -1.85 -3.18055e-15 0 -9.54166e-15 1.13687e-13 -7.15 -1 57.2045 -5.19132 -1.23201 2.27374e-13 -3 -1.13687e-13 9.12721 -0.0579274 -0.235892 -2.27374e-13 -2.35 1.13687e-13 7.80248 -0.0695233 -0.177097 8 0 0 -20.681 -45.0962 -29.8669 0 -45 -1 -0.868868 29.0295 4.08191 8.52651e-14 -41 -2 5.2314 32.4048 -24.9765 0 -7.5 12.5 -1.99894e-15 -8.92942 -1.28783e-14 0 -8.88178e-16 4 -3.44959 12.2821 63.6796 -8 0 2.27374e-13 -28.6893 -43.2833 -39.4073 0 -45 -1 -0.221447 32.8963 1.16489 -1.13687e-13 -41 -2 3.06314 34.3221 -11.847 0 -7.5 12.5 -3.19665e-15 -13.7631 3.27458e-15 1.13687e-13 -3.55271e-15 4 -9.25428 7.17578 62.023 
-277.901 75.6307 1588.21 2.14842 4.05901 -179.969 0 8 0 -0.454838 9.41881 -10.4866 1.13687e-13 8 0 -0.955891 7.95875 2.67868 8.52651e-14 8 2.27374e-13 -0.430801 3.99032 1.32128 2.84217e-14 8 0 -0.429519 3.97954 1.31766 2.84217e-14 17 0 0.993836 7.0598 -7.11716 5.68434e-14 10.8 0 3.79035 16.2582 -17.1974 5 17 0 -7.35182 -0.668829 8.9535 6.45 1.13687e-13 0 -0.623684 -0.799904 2.16678 6.45 0 2.27374e-13 49.6182 17.4692 28.7653 0 -32.4 -2 -106.677 -44.532 -113.958 1.13687e-13 -25.65 2 32.7412 -26.68 -27.6668 -0.5 -1.5 2.65 -57.9495 -53.5233 101.528 5.68434e-14 -3.8 3.7 -0.0481985 23.7349 0.00156045 0 -3 2.7 -0.0145114 38.0245 0.013357 1.7053e-13 -1.9 1.6 -1.59028e-15 -3.97569e-15 -2.33572e-15 -1.7053e-13 -8.3 1.9 -59.035 8.67619 6.21982 4.54747e-13 -4.5 5.68434e-14 -78.6953 -0.000587974 -0.00119568 0 -3.4 5.68434e-14 -63.7275 0.00396162 -0.00438991 -0.25 -2.2 0.4 -1.59028e-15 -3.97569e-15 -2.33572e-15 -5.68434e-14 -8.3 1 -61.2878 10.2158 8.79523 0 -4.65 0 -73.511 0.0020691 -0.00509142 2.27374e-13 -3.3 0 -90.0002 4.69132e-14 -4.45278e-14 -0.5 -2.15 -0.8 -1.59028e-15 -3.97569e-15 -2.33572e-15 -2.27374e-13 -7.75 -0.2 -80.3808 -3.30847 10.4401 -2.27374e-13 -3.8 0 -24.3214 0.00426441 0.0021294 0 -3.4 1.13687e-13 -90.0002 -0.000610352 -6.62947e-14 -0.75 -1.75 -1.85 -1.59028e-15 -3.97569e-15 -2.33572e-15 0 -7.15 -1 -58.4966 12.8159 11.6097 0 -3 -1.13687e-13 -79.0019 -0.00166843 -8.60655e-05 -2.27374e-13 -2.35 -1.13687e-13 -90.0002 7.63333e-14 -4.92986e-14 -5 17 0 9.3482 0.778223 7.23802 -6.45 5.68434e-14 -2.27374e-13 -2.50344 0.717446 -3.01797 -6.45 0 0 -48.5147 -4.11408 -1.5435 0 -32.4 -2 0.24418 -50.4152 7.73376 -1.13687e-13 -25.65 2 -30.3824 0.156912 32.2649 0.5 -1.5 2.65 31.4126 -20.9793 15.7123 0 -3.8 3.7 0.458385 46.9303 -0.251025 0 -3 2.7 0.0303852 -0.203173 -0.0290358 0 -1.9 1.6 -6.36111e-15 3.18055e-15 -4.77083e-15 -5.68434e-14 -8.3 1.9 32.3126 20.8432 -6.63926 0 -4.5 -2.27374e-13 25.4689 -0.0773337 0.357291 2.27374e-13 -3.4 0 19.2809 0.0273774 0.226012 0.25 -2.2 0.4 -6.36111e-15 3.18055e-15 -4.77083e-15 5.68434e-14 -8.3 1 39.9349 14.6412 -6.74647 2.27374e-13 -4.65 0 36.8603 -0.129513 -1.46003 -1.13687e-13 -3.3 2.27374e-13 26.9409 -0.549924 -0.87313 0.5 -2.15 -0.8 -6.36111e-15 3.18055e-15 -4.77083e-15 0 -7.75 -0.2 56.2592 11.6079 -9.94841 0 -3.8 0 11.253 0.0208503 0.290163 -2.27374e-13 -3.4 0 9.54953 0.0545881 0.208046 0.75 -1.75 -1.85 -6.36111e-15 3.18055e-15 -4.77083e-15 -5.68434e-14 -7.15 -1 58.5146 -4.62569 -1.52722 0 -3 -2.27374e-13 6.97936 -0.0326541 -0.208438 0 -2.35 -1.13687e-13 6.19461 -0.0446582 -0.163496 8 0 0 -20.681 -45.0962 -29.8669 0 -45 -1 -0.868868 29.0295 4.08191 8.52651e-14 -41 -2 5.2314 32.4048 -24.9765 0 -7.5 12.5 -1.99894e-15 -8.92942 -1.28783e-14 0 -8.88178e-16 4 -3.4709 12.3014 63.6484 -8 0 2.27374e-13 -28.6893 -43.2833 -39.4073 0 -45 -1 -0.221447 32.8963 1.16489 -1.13687e-13 -41 -2 3.06314 34.3221 -11.847 0 -7.5 12.5 -3.19665e-15 -13.7631 3.27458e-15 1.13687e-13 -3.55271e-15 4 -9.20372 7.21426 62.0141 
-277.901 75.6307 1588.21 2.14842 4.05901 -179.969 0 8 0 -0.464125 9.35373 -10.4673 1.13687e-13 8 -2.27374e-13 -0.932416 7.92251 2.6659 5.68434e-14 8 0 -0.419518 3.97197 1.31538 1.13687e-13 8 2.27374e-13 -0.418275 3.96133 1.31181 -5.68434e-14 17 0 0.971018 7.03903 -6.99807 0 10.8 2.27374e-13 3.70768 16.2197 -16.9045 5 17 -2.27374e-13 -7.28834 -0.647789 8.80713 6.45 0 2.27374e-13 -0.605617 -0.790562 2.16817 6.45 0 4.54747e-13 49.4564 17.9308 28.8679 0 -32.4 -2 -106.809 -44.5472 -114.2 0 -25.65 2 32.4471 -26.6768 -27.7193 -0.5 -1.5 2.65 -57.7648 -53.4592 101.622 5.68434e-14 -3.8 3.7 -0.0481643 23.8243 0.00155541 5.68434e-14 -3 2.7 -0.0144982 38.1482 0.0132265 2.84217e-13 -1.9 1.6 -7.95139e-16 -3.97569e-15 -3.57812e-15 -2.27374e-13 -8.3 1.9 -58.9887 8.68962 6.22144 0 -4.5 5.68434e-14 -78.6723 -0.000536619 -0.00125216 0 -3.4 0 -63.6898 0.00390103 -0.00431218 -0.25 -2.2 0.4 -7.95139e-16 -3.97569e-15 -3.57812e-15 0 -8.3 1 -61.2577 10.2176 8.79568 0 -4.65 1.13687e-13 -73.5314 0.0021424 -0.00516143 2.27374e-13 -3.3 0 -90.0002 3.57812e-14 -2.8625e-14 -0.5 -2.15 -0.8 -7.95139e-16 -3.97569e-15 -3.57812e-15 -2.27374e-13 -7.75 -0.2 -80.3793 -3.2912 10.4453 -4.54747e-13 -3.8 0 -24.2193 0.00423612 0.00206409 -2.27374e-13 -3.4 0 -90.0002 -0.000610352 -9.59136e-14 -0.75 -1.75 -1.85 -7.95139e-16 -3.97569e-15 -3.57812e-15 0 -7.15 -1 -58.5186 12.8147 11.6156 -2.27374e-13 -3 -2.27374e-13 -78.9894 -0.0016199 -5.09352e-05 2.27374e-13 -2.35 0 -90.0002 5.08889e-14 -3.18055e-14 -5 17 -2.27374e-13 9.49095 0.805103 7.33671 -6.45 1.13687e-13 0 -2.47942 0.707904 -2.9876 -6.45 0 0 -47.9643 -3.32941 -1.95879 0 -32.4 -2 1.25252 -50.8925 8.04849 0 -25.65 2 -32.3922 -3.6655 30.7462 0.5 -1.5 2.65 31.2267 -20.2136 16.1252 0 -3.8 3.7 0.415922 46.8452 -0.120271 0 -3 2.7 0.0304072 -0.166641 -0.0309561 -1.7053e-13 -1.9 1.6 -1.59028e-15 6.36111e-15 -4.77083e-15 5.68434e-14 -8.3 1.9 32.1504 21.0977 -6.58691 0 -4.5 0 26.0402 -0.0667536 0.326921 0 -3.4 0 19.6348 0.0259117 0.207945 0.25 -2.2 0.4 -1.59028e-15 6.36111e-15 -4.77083e-15 0 -8.3 1 39.7336 15.2518 -6.83048 0 -4.65 -2.27374e-13 30.0829 -0.0833318 -1.36157 0 -3.3 0 22.2791 -0.429685 -0.820814 0.5 -2.15 -0.8 -1.59028e-15 6.36111e-15 -4.77083e-15 0 -7.75 -0.2 56.2196 12.0571 -10.1544 -2.27374e-13 -3.8 2.27374e-13 12.1531 0.0318672 0.432893 -2.27374e-13 -3.4 0 10.1694 0.0813639 0.311736 0.75 -1.75 -1.85 -1.59028e-15 6.36111e-15 -4.77083e-15 -5.68434e-14 -7.15 -1 59.8083 -4.32353 -1.79616 -2.27374e-13 -3 2.27374e-13 5.20298 -0.0157884 -0.146981 0 -2.35 -1.13687e-13 4.7821 -0.0244225 -0.122523 8 0 0 -20.681 -45.0962 -29.8669 0 -45 -1 -0.868868 29.0295 4.08191 8.52651e-14 -41 -2 5.2314 32.4048 -24.9765 0 -7.5 12.5 -1.99894e-15 -8.92942 -1.28783e-14 0 -8.88178e-16 4 -3.48635 12.3189 63.6388 -8 0 2.27374e-13 -28.6893 -43.2833 -39.4073 0 -45 -1 -0.221447 32.8963 1.16489 -1.13687e-13 -41 -2 3.06314 34.3221 -11.847 0 -7.5 12.5 -3.19665e-15 -13.7631 3.27458e-15 1.13687e-13 -3.55271e-15 4 -9.14561 7.25364 62.0107 
